<svg xmlns="http://www.w3.org/2000/svg" xmlns:xlink="http://www.w3.org/1999/xlink" width="44" height="44" viewBox="0 0 44 44" role="img" aria-label="Neo4j">
  <defs><filter id="lift" color-interpolation-filters="sRGB"><feColorMatrix type="matrix" values="-0.2126 -0.7152 -0.0722 0 0.92  -0.2126 -0.7152 -0.0722 0 0.92  -0.2126 -0.7152 -0.0722 0 0.92  0 0 0 1 0"/></filter></defs>
  <rect x="0.5" y="0.5" width="43" height="43" rx="10" fill="#161b22" stroke="#2b313a"/>
  <g filter="url(#lift)"><svg x="8" y="8" width="28" height="28" viewBox="0 0 24 24"><title>Neo4j</title><path d="M9.629 13.227c-.593 0-1.139.2-1.58.533l-2.892-1.976a2.61 2.61 0 0 0 .101-.711 2.633 2.633 0 0 0-2.629-2.629A2.632 2.632 0 0 0 0 11.073a2.632 2.632 0 0 0 2.629 2.629c.593 0 1.139-.2 1.579-.533L7.1 15.145c-.063.226-.1.465-.1.711 0 .247.037.484.1.711l-2.892 1.976a2.608 2.608 0 0 0-1.579-.533A2.632 2.632 0 0 0 0 20.639a2.632 2.632 0 0 0 2.629 2.629 2.632 2.632 0 0 0 2.629-2.629c0-.247-.037-.485-.101-.711l2.892-1.976c.441.333.987.533 1.58.533a2.633 2.633 0 0 0 2.629-2.629c0-1.45-1.18-2.629-2.629-2.629ZM16.112.732c-4.72 0-7.888 2.748-7.888 8.082v3.802a3.525 3.525 0 0 1 3.071.008v-3.81c0-3.459 1.907-5.237 4.817-5.237s4.817 1.778 4.817 5.237v8.309H24V8.814C24 3.448 20.832.732 16.112.732Z"/></svg></g>
</svg>
